<svg width="20" height="20" viewBox="0 0 20 20" fill="none" xmlns="http://www.w3.org/2000/svg">
<path d="M1.66177 5.67251L4.01136 3.32292V19.0251C4.01136 19.5622 4.44593 19.9978 4.98401 19.9978C5.52111 19.9978 5.95665 19.5632 5.95665 19.0251V3.32217L8.30624 5.67176C8.49667 5.86219 8.74667 5.95691 8.99374 5.95691C9.24081 5.95691 9.49081 5.86218 9.68124 5.67176C10.0611 5.29189 10.0611 4.67469 9.68124 4.29384L5.6745 0.287107C5.58466 0.197262 5.47431 0.124997 5.35421 0.0742175C5.34932 0.0712878 5.34444 0.0712877 5.33956 0.0693347C5.23018 0.0253899 5.11007 0 4.98506 0C4.86005 0 4.73994 0.0253899 4.62959 0.0703122C4.6247 0.0732419 4.61982 0.073242 4.61494 0.075195C4.49482 0.125 4.38447 0.197264 4.29464 0.288084L0.284905 4.29782C-0.0949683 4.67769 -0.0949683 5.29489 0.284905 5.67574C0.664779 6.05269 1.28198 6.05269 1.66185 5.67281L1.66177 5.67251Z" fill="#1F2029"/>
<path d="M18.3377 14.327L15.9881 16.6766L15.9871 0.972646C15.9871 0.435548 15.5526 0 15.0145 0C14.4774 0 14.0418 0.434573 14.0418 0.972646V16.6748L11.6922 14.3252C11.3124 13.9454 10.6971 13.9454 10.3143 14.3252C9.93445 14.7051 9.93445 15.3223 10.3143 15.7032L14.3251 19.7129C14.4149 19.8027 14.5253 19.875 14.6454 19.9258C14.6502 19.9287 14.6551 19.9287 14.66 19.9307C14.7694 19.9746 14.8895 20 15.0145 20C15.1395 20 15.2596 19.9746 15.37 19.9297C15.3749 19.9268 15.3797 19.9268 15.3846 19.9248C15.5047 19.875 15.6151 19.8027 15.7049 19.7119L19.7147 15.7022C20.0945 15.3223 20.0945 14.7051 19.7147 14.3243C19.3348 13.9473 18.7176 13.9473 18.3377 14.3272L18.3377 14.327Z" fill="#1F2029"/>
</svg>
