<svg width="12" height="21" viewBox="0 0 12 21" fill="none" xmlns="http://www.w3.org/2000/svg">
<path d="M9.47021 20.4712C9.71729 20.7183 10.0317 20.853 10.4023 20.853C11.1436 20.853 11.7388 20.269 11.7388 19.5278C11.7388 19.1572 11.5815 18.8203 11.3232 18.562L3.46191 10.8804L11.3232 3.22119C11.5815 2.96289 11.7388 2.61475 11.7388 2.25537C11.7388 1.51416 11.1436 0.930176 10.4023 0.930176C10.0317 0.930176 9.71729 1.06494 9.47021 1.31201L0.73291 9.84717C0.418457 10.1392 0.272461 10.4985 0.26123 10.8916C0.26123 11.2847 0.418457 11.6216 0.73291 11.9248L9.47021 20.4712Z" fill="white"/>
</svg>
