<svg width="18" height="20" viewBox="0 0 18 20" fill="none" xmlns="http://www.w3.org/2000/svg">
<path d="M0 1.00089V4.18912C0.00253622 5.01472 0.342415 5.80227 0.94225 6.37042L5.09818 10.2994C5.29474 10.4896 5.40635 10.7521 5.40888 11.0261V18.9993C5.40761 19.3316 5.56994 19.6436 5.84385 19.8313C6.01125 19.9441 6.20783 20.0025 6.40947 19.9999C6.53502 19.9999 6.66057 19.9784 6.77977 19.9352L11.5266 18.0393H11.5253C11.9146 17.8947 12.1734 17.5244 12.1746 17.1097V11.0325C12.1759 10.7548 12.29 10.4884 12.4929 10.2995L16.6677 6.4036C17.2726 5.83545 17.615 5.0441 17.6163 4.2147V1.00112C17.6176 0.731 17.5098 0.471026 17.3157 0.282076C17.123 0.0931159 16.8605 -0.00833905 16.5903 0.000537055H4.18229C3.62937 0.000537055 3.1817 0.448205 3.1817 1.00113C3.1817 1.55278 3.62937 2.00045 4.18229 2.00045H15.5972V4.18935C15.5985 4.46328 15.4881 4.72578 15.2916 4.91603L11.1168 8.8119C10.5119 9.38005 10.1695 10.1714 10.1682 10.9995V16.4021L7.42132 17.4928V10.9997H7.42259C7.42005 10.1753 7.07891 9.38651 6.48034 8.81837L2.32441 4.92249C2.12657 4.73226 2.01371 4.46976 2.01371 4.19581V1.00126C2.01371 0.448335 1.56604 0.000667094 1.01312 0.000667094C0.46146 0.000667094 0.0137916 0.448335 0.0137916 1.00126L0 1.00089Z" fill="#1F2029"/>
</svg>
