<svg width="25" height="25" viewBox="0 0 25 25" fill="current" xmlns="http://www.w3.org/2000/svg">
<path fill="current" stroke="current" d="M13.1097 4.72438L13.1095 4.7246C12.9482 4.88865 12.795 5.06211 12.6489 5.24884C11.3353 3.57909 9.19637 2.73111 7.08129 3.11724C5.29146 3.44222 3.88271 4.42695 2.90303 6.03746C1.52336 8.3028 1.4047 10.5022 2.57213 12.5609C3.18881 13.6502 3.98909 14.7103 5.01508 15.8024L5.01514 15.8025C6.89369 17.7986 9.11415 19.6919 12.0047 21.7572L12.0048 21.7572C12.2044 21.8996 12.4219 21.975 12.6508 21.975C12.9993 21.975 13.2365 21.7988 13.3452 21.7181L13.3466 21.717C13.3469 21.7168 13.3471 21.7166 13.3474 21.7165C15.9545 19.854 18.0057 18.1364 19.7981 16.3083C20.7989 15.2881 21.9397 14.0301 22.7755 12.454C23.1323 11.7824 23.5477 10.8653 23.5229 9.81206V9.81201C23.4692 7.57639 22.5794 5.72752 20.8812 4.32408C19.8716 3.48795 18.5735 3.0289 17.2305 3.0289C15.6801 3.0289 14.1764 3.64627 13.1097 4.72438ZM21.2417 11.6408L21.2416 11.6409C20.5114 13.017 19.4775 14.1539 18.5583 15.0923C16.9218 16.7605 15.0527 18.34 12.6475 20.0814C10.0275 18.1825 7.99734 16.4368 6.28051 14.6102L6.2805 14.6102C5.34824 13.6187 4.62895 12.6693 4.08275 11.7027L4.08267 11.7026C3.65412 10.9471 3.46596 10.1944 3.51519 9.41472C3.5645 8.63387 3.8524 7.81861 4.38789 6.93991L4.38794 6.93982C5.10161 5.7661 6.11224 5.05645 7.39492 4.82411L7.39537 4.82402C7.63973 4.7786 7.88902 4.75663 8.13368 4.75663C9.6486 4.75663 10.9925 5.59279 11.7541 7.05297L11.7544 7.05349L11.8861 7.30248L11.8862 7.30266C12.0407 7.59335 12.3563 7.75319 12.6623 7.76208L12.6623 7.76219L12.6669 7.76211C12.9936 7.75666 13.2879 7.56958 13.4313 7.27555C13.7005 6.72603 13.9918 6.30337 14.3459 5.94456C15.0878 5.19483 16.1397 4.76463 17.2321 4.76463C18.1736 4.76463 19.0761 5.08318 19.7754 5.66212L19.7755 5.6622C21.0891 6.74684 21.7447 8.11525 21.7874 9.85241C21.8011 10.4911 21.5252 11.1073 21.2417 11.6408Z" fill="white" stroke="white" stroke-width="0.2"/>
</svg>
